{
  "asset": {
    "version": "2.0"
  },
  "scene": 0,
  "scenes": [
    {
      "nodes": [
        0
      ]
    }
  ],
  "nodes": [
    {
      "mesh": 0,
      "translation": [
        0.82,
        0.02,
        0
      ]
    }
  ],
  "meshes": [
    {
      "primitives": [
        {
          "attributes": {
            "POSITION": 0
          },
          "indices": 1,
          "material": 0
        }
      ]
    }
  ],
  "materials": [
    {
      "pbrMetallicRoughness": {
        "baseColorFactor": [
          0.35,
          0.55,
          0.4,
          1.0
        ],
        "metallicFactor": 0,
        "roughnessFactor": 1
      }
    }
  ],
  "accessors": [
    {
      "bufferView": 0,
      "componentType": 5126,
      "count": 4,
      "type": "VEC3",
      "max": [
        1.02,
        0,
        0.2
      ],
      "min": [
        0.62,
        0,
        -0.2
      ]
    },
    {
      "bufferView": 1,
      "componentType": 5123,
      "count": 6,
      "type": "SCALAR",
      "max": [
        3
      ],
      "min": [
        0
      ]
    }
  ],
  "bufferViews": [
    {
      "buffer": 0,
      "byteOffset": 0,
      "byteLength": 48
    },
    {
      "buffer": 0,
      "byteOffset": 48,
      "byteLength": 12
    }
  ],
  "buffers": [
    {
      "byteLength": 60,
      "uri": "data:application/octet-stream;base64,"
    }
  ]
}